<mxfile host="app.diagrams.net" agent="Mozilla/5.0 (Windows NT 10.0; Win64; x64) AppleWebKit/537.36 (KHTML, like Gecko) Chrome/123.0.0.0 Safari/537.36" version="24.7.14">
  <diagram name="PÃ¡gina-1" id="u_Q1E3ftepJdIb4vu9BP">
    <mxGraphModel dx="1788" dy="1187" grid="0" gridSize="10" guides="1" tooltips="1" connect="1" arrows="1" fold="1" page="0" pageScale="1" pageWidth="827" pageHeight="1169" math="0" shadow="0">
      <root>
        <mxCell id="0" />
        <mxCell id="1" parent="0" />
        <mxCell id="OIax8OIQotlJ2arv3n3t-1" value="Vehiculo" style="swimlane;fontStyle=1;align=center;verticalAlign=top;childLayout=stackLayout;horizontal=1;startSize=26;horizontalStack=0;resizeParent=1;resizeParentMax=0;resizeLast=0;collapsible=1;marginBottom=0;whiteSpace=wrap;html=1;" parent="1" vertex="1">
          <mxGeometry x="-17" y="-487" width="160" height="230" as="geometry" />
        </mxCell>
        <mxCell id="t2FBeqEu4OEFF9fF_F9i-1" value="+marca: string&lt;div&gt;+modelo: string&lt;/div&gt;&lt;div&gt;+nro_ruedas: int&lt;/div&gt;&lt;div&gt;&lt;br&gt;&lt;/div&gt;" style="text;strokeColor=none;fillColor=none;align=left;verticalAlign=top;spacingLeft=4;spacingRight=4;overflow=hidden;rotatable=0;points=[[0,0.5],[1,0.5]];portConstraint=eastwest;whiteSpace=wrap;html=1;" parent="OIax8OIQotlJ2arv3n3t-1" vertex="1">
          <mxGeometry y="26" width="160" height="68" as="geometry" />
        </mxCell>
        <mxCell id="OIax8OIQotlJ2arv3n3t-2" value="+marca: string&lt;div&gt;+modelo: string&lt;/div&gt;&lt;div&gt;+n_ruedas: int&lt;/div&gt;&lt;div&gt;&lt;br&gt;&lt;/div&gt;" style="text;strokeColor=none;fillColor=none;align=left;verticalAlign=top;spacingLeft=4;spacingRight=4;overflow=hidden;rotatable=0;points=[[0,0.5],[1,0.5]];portConstraint=eastwest;whiteSpace=wrap;html=1;" parent="OIax8OIQotlJ2arv3n3t-1" vertex="1">
          <mxGeometry y="94" width="160" height="61" as="geometry" />
        </mxCell>
        <mxCell id="OIax8OIQotlJ2arv3n3t-3" value="" style="line;strokeWidth=1;fillColor=none;align=left;verticalAlign=middle;spacingTop=-1;spacingLeft=3;spacingRight=3;rotatable=0;labelPosition=right;points=[];portConstraint=eastwest;strokeColor=inherit;" parent="OIax8OIQotlJ2arv3n3t-1" vertex="1">
          <mxGeometry y="155" width="160" height="8" as="geometry" />
        </mxCell>
        <mxCell id="OIax8OIQotlJ2arv3n3t-4" value="+ guardar_datos_csv()&lt;div&gt;+ leer_datos_csv()&lt;/div&gt;" style="text;strokeColor=none;fillColor=none;align=left;verticalAlign=top;spacingLeft=4;spacingRight=4;overflow=hidden;rotatable=0;points=[[0,0.5],[1,0.5]];portConstraint=eastwest;whiteSpace=wrap;html=1;" parent="OIax8OIQotlJ2arv3n3t-1" vertex="1">
          <mxGeometry y="163" width="160" height="67" as="geometry" />
        </mxCell>
        <mxCell id="OIax8OIQotlJ2arv3n3t-5" value="Vehiculo_carga" style="swimlane;fontStyle=1;align=center;verticalAlign=top;childLayout=stackLayout;horizontal=1;startSize=26;horizontalStack=0;resizeParent=1;resizeParentMax=0;resizeLast=0;collapsible=1;marginBottom=0;whiteSpace=wrap;html=1;" parent="1" vertex="1">
          <mxGeometry x="-86" y="224" width="160" height="157" as="geometry" />
        </mxCell>
        <mxCell id="OIax8OIQotlJ2arv3n3t-6" value="+ peso_carga: int" style="text;strokeColor=none;fillColor=none;align=left;verticalAlign=top;spacingLeft=4;spacingRight=4;overflow=hidden;rotatable=0;points=[[0,0.5],[1,0.5]];portConstraint=eastwest;whiteSpace=wrap;html=1;" parent="OIax8OIQotlJ2arv3n3t-5" vertex="1">
          <mxGeometry y="26" width="160" height="52" as="geometry" />
        </mxCell>
        <mxCell id="OIax8OIQotlJ2arv3n3t-7" value="" style="line;strokeWidth=1;fillColor=none;align=left;verticalAlign=middle;spacingTop=-1;spacingLeft=3;spacingRight=3;rotatable=0;labelPosition=right;points=[];portConstraint=eastwest;strokeColor=inherit;" parent="OIax8OIQotlJ2arv3n3t-5" vertex="1">
          <mxGeometry y="78" width="160" height="8" as="geometry" />
        </mxCell>
        <mxCell id="OIax8OIQotlJ2arv3n3t-8" value="+" style="text;strokeColor=none;fillColor=none;align=left;verticalAlign=top;spacingLeft=4;spacingRight=4;overflow=hidden;rotatable=0;points=[[0,0.5],[1,0.5]];portConstraint=eastwest;whiteSpace=wrap;html=1;" parent="OIax8OIQotlJ2arv3n3t-5" vertex="1">
          <mxGeometry y="86" width="160" height="71" as="geometry" />
        </mxCell>
        <mxCell id="OIax8OIQotlJ2arv3n3t-9" value="Vehiculo_particular" style="swimlane;fontStyle=1;align=center;verticalAlign=top;childLayout=stackLayout;horizontal=1;startSize=26;horizontalStack=0;resizeParent=1;resizeParentMax=0;resizeLast=0;collapsible=1;marginBottom=0;whiteSpace=wrap;html=1;" parent="1" vertex="1">
          <mxGeometry x="-453" y="219" width="160" height="150" as="geometry" />
        </mxCell>
        <mxCell id="OIax8OIQotlJ2arv3n3t-10" value="+nro_puesto: int&lt;div&gt;&lt;br&gt;&lt;/div&gt;" style="text;strokeColor=none;fillColor=none;align=left;verticalAlign=top;spacingLeft=4;spacingRight=4;overflow=hidden;rotatable=0;points=[[0,0.5],[1,0.5]];portConstraint=eastwest;whiteSpace=wrap;html=1;" parent="OIax8OIQotlJ2arv3n3t-9" vertex="1">
          <mxGeometry y="26" width="160" height="45" as="geometry" />
        </mxCell>
        <mxCell id="OIax8OIQotlJ2arv3n3t-11" value="" style="line;strokeWidth=1;fillColor=none;align=left;verticalAlign=middle;spacingTop=-1;spacingLeft=3;spacingRight=3;rotatable=0;labelPosition=right;points=[];portConstraint=eastwest;strokeColor=inherit;" parent="OIax8OIQotlJ2arv3n3t-9" vertex="1">
          <mxGeometry y="71" width="160" height="8" as="geometry" />
        </mxCell>
        <mxCell id="OIax8OIQotlJ2arv3n3t-12" value="+" style="text;strokeColor=none;fillColor=none;align=left;verticalAlign=top;spacingLeft=4;spacingRight=4;overflow=hidden;rotatable=0;points=[[0,0.5],[1,0.5]];portConstraint=eastwest;whiteSpace=wrap;html=1;" parent="OIax8OIQotlJ2arv3n3t-9" vertex="1">
          <mxGeometry y="79" width="160" height="71" as="geometry" />
        </mxCell>
        <mxCell id="OIax8OIQotlJ2arv3n3t-13" value="Atutomovil" style="swimlane;fontStyle=1;align=center;verticalAlign=top;childLayout=stackLayout;horizontal=1;startSize=26;horizontalStack=0;resizeParent=1;resizeParentMax=0;resizeLast=0;collapsible=1;marginBottom=0;whiteSpace=wrap;html=1;" parent="1" vertex="1">
          <mxGeometry x="-246" y="-102" width="160" height="172" as="geometry" />
        </mxCell>
        <mxCell id="OIax8OIQotlJ2arv3n3t-14" value="+ velocidad: int&lt;div&gt;+cilindradas: int&lt;/div&gt;" style="text;strokeColor=none;fillColor=none;align=left;verticalAlign=top;spacingLeft=4;spacingRight=4;overflow=hidden;rotatable=0;points=[[0,0.5],[1,0.5]];portConstraint=eastwest;whiteSpace=wrap;html=1;" parent="OIax8OIQotlJ2arv3n3t-13" vertex="1">
          <mxGeometry y="26" width="160" height="72" as="geometry" />
        </mxCell>
        <mxCell id="OIax8OIQotlJ2arv3n3t-15" value="" style="line;strokeWidth=1;fillColor=none;align=left;verticalAlign=middle;spacingTop=-1;spacingLeft=3;spacingRight=3;rotatable=0;labelPosition=right;points=[];portConstraint=eastwest;strokeColor=inherit;" parent="OIax8OIQotlJ2arv3n3t-13" vertex="1">
          <mxGeometry y="98" width="160" height="8" as="geometry" />
        </mxCell>
        <mxCell id="OIax8OIQotlJ2arv3n3t-16" value="+" style="text;strokeColor=none;fillColor=none;align=left;verticalAlign=top;spacingLeft=4;spacingRight=4;overflow=hidden;rotatable=0;points=[[0,0.5],[1,0.5]];portConstraint=eastwest;whiteSpace=wrap;html=1;" parent="OIax8OIQotlJ2arv3n3t-13" vertex="1">
          <mxGeometry y="106" width="160" height="66" as="geometry" />
        </mxCell>
        <mxCell id="OIax8OIQotlJ2arv3n3t-26" value="Extends" style="endArrow=block;endSize=16;endFill=0;html=1;rounded=0;fontSize=12;curved=1;entryX=0.051;entryY=1.035;entryDx=0;entryDy=0;entryPerimeter=0;exitX=0.5;exitY=0;exitDx=0;exitDy=0;" parent="1" source="OIax8OIQotlJ2arv3n3t-9" target="OIax8OIQotlJ2arv3n3t-16" edge="1">
          <mxGeometry x="0.1432" y="-23" width="160" relative="1" as="geometry">
            <mxPoint x="-278" y="228" as="sourcePoint" />
            <mxPoint x="-154" y="182" as="targetPoint" />
            <Array as="points" />
            <mxPoint as="offset" />
          </mxGeometry>
        </mxCell>
        <mxCell id="OIax8OIQotlJ2arv3n3t-27" value="Extends" style="endArrow=block;endSize=16;endFill=0;html=1;rounded=0;fontSize=12;curved=1;exitX=0.5;exitY=0;exitDx=0;exitDy=0;entryX=0.968;entryY=1.023;entryDx=0;entryDy=0;entryPerimeter=0;" parent="1" source="OIax8OIQotlJ2arv3n3t-5" target="OIax8OIQotlJ2arv3n3t-16" edge="1">
          <mxGeometry width="160" relative="1" as="geometry">
            <mxPoint x="-155" y="165" as="sourcePoint" />
            <mxPoint x="5" y="165" as="targetPoint" />
          </mxGeometry>
        </mxCell>
        <mxCell id="OIax8OIQotlJ2arv3n3t-28" value="Extends" style="endArrow=block;endSize=16;endFill=0;html=1;rounded=0;fontSize=12;curved=1;entryX=0.429;entryY=1.012;entryDx=0;entryDy=0;entryPerimeter=0;exitX=0.5;exitY=0;exitDx=0;exitDy=0;" parent="1" source="OIax8OIQotlJ2arv3n3t-13" target="OIax8OIQotlJ2arv3n3t-4" edge="1">
          <mxGeometry width="160" relative="1" as="geometry">
            <mxPoint x="43" y="-137" as="sourcePoint" />
            <mxPoint x="203" y="-137" as="targetPoint" />
          </mxGeometry>
        </mxCell>
        <mxCell id="VevKEKXO-HOFurC0vWR6-1" value="Motocicleta" style="swimlane;fontStyle=1;align=center;verticalAlign=top;childLayout=stackLayout;horizontal=1;startSize=26;horizontalStack=0;resizeParent=1;resizeParentMax=0;resizeLast=0;collapsible=1;marginBottom=0;whiteSpace=wrap;html=1;" vertex="1" parent="1">
          <mxGeometry x="273" y="232" width="160" height="153" as="geometry" />
        </mxCell>
        <mxCell id="VevKEKXO-HOFurC0vWR6-2" value="+ nr_radios: int&lt;div&gt;+ cuadros: int&lt;/div&gt;&lt;div&gt;+ motor: str&lt;/div&gt;" style="text;strokeColor=none;fillColor=none;align=left;verticalAlign=top;spacingLeft=4;spacingRight=4;overflow=hidden;rotatable=0;points=[[0,0.5],[1,0.5]];portConstraint=eastwest;whiteSpace=wrap;html=1;" vertex="1" parent="VevKEKXO-HOFurC0vWR6-1">
          <mxGeometry y="26" width="160" height="52" as="geometry" />
        </mxCell>
        <mxCell id="VevKEKXO-HOFurC0vWR6-3" value="" style="line;strokeWidth=1;fillColor=none;align=left;verticalAlign=middle;spacingTop=-1;spacingLeft=3;spacingRight=3;rotatable=0;labelPosition=right;points=[];portConstraint=eastwest;strokeColor=inherit;" vertex="1" parent="VevKEKXO-HOFurC0vWR6-1">
          <mxGeometry y="78" width="160" height="8" as="geometry" />
        </mxCell>
        <mxCell id="VevKEKXO-HOFurC0vWR6-4" value="+" style="text;strokeColor=none;fillColor=none;align=left;verticalAlign=top;spacingLeft=4;spacingRight=4;overflow=hidden;rotatable=0;points=[[0,0.5],[1,0.5]];portConstraint=eastwest;whiteSpace=wrap;html=1;" vertex="1" parent="VevKEKXO-HOFurC0vWR6-1">
          <mxGeometry y="86" width="160" height="67" as="geometry" />
        </mxCell>
        <mxCell id="VevKEKXO-HOFurC0vWR6-9" value="Bicicleta" style="swimlane;fontStyle=1;align=center;verticalAlign=top;childLayout=stackLayout;horizontal=1;startSize=26;horizontalStack=0;resizeParent=1;resizeParentMax=0;resizeLast=0;collapsible=1;marginBottom=0;whiteSpace=wrap;html=1;" vertex="1" parent="1">
          <mxGeometry x="257" y="-88" width="160" height="172" as="geometry" />
        </mxCell>
        <mxCell id="VevKEKXO-HOFurC0vWR6-10" value="+ tipo_uso: str" style="text;strokeColor=none;fillColor=none;align=left;verticalAlign=top;spacingLeft=4;spacingRight=4;overflow=hidden;rotatable=0;points=[[0,0.5],[1,0.5]];portConstraint=eastwest;whiteSpace=wrap;html=1;" vertex="1" parent="VevKEKXO-HOFurC0vWR6-9">
          <mxGeometry y="26" width="160" height="72" as="geometry" />
        </mxCell>
        <mxCell id="VevKEKXO-HOFurC0vWR6-11" value="" style="line;strokeWidth=1;fillColor=none;align=left;verticalAlign=middle;spacingTop=-1;spacingLeft=3;spacingRight=3;rotatable=0;labelPosition=right;points=[];portConstraint=eastwest;strokeColor=inherit;" vertex="1" parent="VevKEKXO-HOFurC0vWR6-9">
          <mxGeometry y="98" width="160" height="8" as="geometry" />
        </mxCell>
        <mxCell id="VevKEKXO-HOFurC0vWR6-12" value="+" style="text;strokeColor=none;fillColor=none;align=left;verticalAlign=top;spacingLeft=4;spacingRight=4;overflow=hidden;rotatable=0;points=[[0,0.5],[1,0.5]];portConstraint=eastwest;whiteSpace=wrap;html=1;" vertex="1" parent="VevKEKXO-HOFurC0vWR6-9">
          <mxGeometry y="106" width="160" height="66" as="geometry" />
        </mxCell>
        <mxCell id="VevKEKXO-HOFurC0vWR6-14" value="Extends" style="endArrow=block;endSize=16;endFill=0;html=1;rounded=0;fontSize=12;curved=1;exitX=0.5;exitY=0;exitDx=0;exitDy=0;" edge="1" parent="1" source="VevKEKXO-HOFurC0vWR6-1" target="VevKEKXO-HOFurC0vWR6-12">
          <mxGeometry width="160" relative="1" as="geometry">
            <mxPoint x="348" y="179" as="sourcePoint" />
            <mxPoint x="508" y="179" as="targetPoint" />
          </mxGeometry>
        </mxCell>
        <mxCell id="VevKEKXO-HOFurC0vWR6-15" value="Extends" style="endArrow=block;endSize=16;endFill=0;html=1;rounded=0;entryX=0.718;entryY=0.928;entryDx=0;entryDy=0;entryPerimeter=0;exitX=0.438;exitY=0;exitDx=0;exitDy=0;exitPerimeter=0;" edge="1" parent="1" source="VevKEKXO-HOFurC0vWR6-9" target="OIax8OIQotlJ2arv3n3t-4">
          <mxGeometry width="160" relative="1" as="geometry">
            <mxPoint x="413" y="-124" as="sourcePoint" />
            <mxPoint x="363" y="-204" as="targetPoint" />
          </mxGeometry>
        </mxCell>
      </root>
    </mxGraphModel>
  </diagram>
</mxfile>
